<svg width="167" height="50" viewBox="0 0 167 50" fill="none" xmlns="http://www.w3.org/2000/svg">
<path d="M12.5 3C12.5 1.34315 13.8431 0 15.5 0H22C23.6569 0 25 1.34315 25 3V9.5C25 11.1569 23.6569 12.5 22 12.5H12.5V3Z" fill="white"/>
<path d="M0 15.5C0 13.8431 1.34315 12.5 3 12.5H12.5V25H3C1.34315 25 0 23.6569 0 22V15.5Z" fill="white"/>
<path d="M12.5 25H22C23.6569 25 25 26.3431 25 28V34.5C25 36.1569 23.6569 37.5 22 37.5H12.5V25Z" fill="white"/>
<path d="M0 40.5C0 38.8431 1.34315 37.5 3 37.5H12.5V47C12.5 48.6569 11.1569 50 9.5 50H3C1.34315 50 0 48.6569 0 47V40.5Z" fill="white"/>
<path d="M40.9815 38V11.8182H58.8537V16.9574H47.3097V22.3267H57.7159V27.4787H47.3097V38H40.9815ZM62.0401 38V18.3636H68.2915V38H62.0401ZM65.1722 16.0753C64.2944 16.0753 63.5401 15.7855 62.9094 15.206C62.2788 14.6179 61.9634 13.9105 61.9634 13.0838C61.9634 12.2656 62.2788 11.5668 62.9094 10.9872C63.5401 10.3991 64.2944 10.1051 65.1722 10.1051C66.0586 10.1051 66.8129 10.3991 67.435 10.9872C68.0657 11.5668 68.381 12.2656 68.381 13.0838C68.381 13.9105 68.0657 14.6179 67.435 15.206C66.8129 15.7855 66.0586 16.0753 65.1722 16.0753ZM77.5888 18.3636L80.8232 24.8324L84.1726 18.3636H90.4751L84.9908 28.1818L90.6797 38H84.4283L80.8232 31.4801L77.3075 38H70.9666L76.6683 28.1818L71.2479 18.3636H77.5888ZM101.805 38.3707C99.7511 38.3707 97.9783 37.9659 96.4869 37.1562C95.0039 36.3381 93.8619 35.1747 93.0607 33.6662C92.2681 32.1491 91.8718 30.3466 91.8718 28.2585C91.8718 26.2301 92.2724 24.4574 93.0735 22.9403C93.8746 21.4148 95.0039 20.2301 96.4613 19.3864C97.9187 18.5341 99.636 18.108 101.613 18.108C103.011 18.108 104.289 18.3253 105.449 18.7599C106.608 19.1946 107.609 19.8381 108.453 20.6903C109.297 21.5426 109.953 22.5952 110.422 23.848C110.89 25.0923 111.125 26.5199 111.125 28.1307V29.6903H94.0579V26.0597H105.308C105.299 25.3949 105.142 24.8026 104.835 24.2827C104.528 23.7628 104.106 23.358 103.569 23.0682C103.041 22.7699 102.431 22.6207 101.741 22.6207C101.042 22.6207 100.416 22.7784 99.8619 23.0938C99.3079 23.4006 98.869 23.8224 98.5451 24.3594C98.2212 24.8878 98.0508 25.4886 98.0337 26.1619V29.8565C98.0337 30.6577 98.1914 31.3608 98.5067 31.9659C98.8221 32.5625 99.2695 33.027 99.8491 33.3594C100.429 33.6918 101.119 33.858 101.92 33.858C102.474 33.858 102.977 33.7812 103.429 33.6278C103.88 33.4744 104.268 33.2486 104.592 32.9503C104.916 32.652 105.159 32.2855 105.321 31.8509L111.061 32.017C110.822 33.304 110.298 34.4247 109.488 35.3793C108.687 36.3253 107.635 37.0625 106.331 37.5909C105.027 38.1108 103.518 38.3707 101.805 38.3707ZM120.569 11.8182V38H114.317V11.8182H120.569ZM148.122 11.8182H154.437V28.706C154.437 30.6577 153.973 32.358 153.044 33.8068C152.115 35.2472 150.819 36.3636 149.157 37.1562C147.495 37.9403 145.565 38.3324 143.366 38.3324C141.142 38.3324 139.199 37.9403 137.537 37.1562C135.875 36.3636 134.583 35.2472 133.663 33.8068C132.743 32.358 132.282 30.6577 132.282 28.706V11.8182H138.61V28.1562C138.61 29.0597 138.806 29.8651 139.199 30.5724C139.599 31.2798 140.157 31.8338 140.873 32.2344C141.589 32.6349 142.42 32.8352 143.366 32.8352C144.312 32.8352 145.139 32.6349 145.846 32.2344C146.562 31.8338 147.12 31.2798 147.521 30.5724C147.922 29.8651 148.122 29.0597 148.122 28.1562V11.8182ZM164.732 11.8182V38H158.403V11.8182H164.732Z" fill="white"/>
</svg>
